<?xml version="1.0" standalone="no"?>
<!DOCTYPE svg PUBLIC "-//W3C//DTD SVG 20010904//EN"
 "http://www.w3.org/TR/2001/REC-SVG-20010904/DTD/svg10.dtd">
<svg version="1.0" xmlns="http://www.w3.org/2000/svg"
 width="210.000000pt" height="210.000000pt" viewBox="0 0 210.000000 210.000000"
 preserveAspectRatio="xMidYMid meet">
<metadata>
Created by potrace 1.14, written by Peter Selinger 2001-2017
</metadata>
<g transform="translate(0.000000,210.000000) scale(0.100000,-0.100000)"
fill="#000000" stroke="none">
<path d="M0 1050 l0 -1050 1050 0 1050 0 0 1050 0 1050 -1050 0 -1050 0 0
-1050z m1130 970 c17 -17 18 -24 10 -41 -15 -27 -36 -34 -66 -21 -28 13 -31
43 -8 66 21 21 40 20 64 -4z m-166 -61 c-33 -17 -68 -38 -78 -47 -34 -30 -91
-126 -111 -187 -11 -33 -23 -62 -27 -65 -4 -4 -11 -21 -14 -40 -7 -30 -5 -33
12 -26 46 19 79 25 103 19 30 -7 71 -41 71 -59 0 -22 -42 -24 -68 -3 -30 23
-70 25 -100 3 -14 -9 -30 -13 -44 -8 -22 7 -22 7 -2 23 15 13 19 30 21 81 3
133 77 250 195 309 80 40 118 40 42 0z m351 -20 c22 -10 51 -28 65 -39 l25
-19 -29 -28 c-16 -15 -26 -22 -22 -15 5 8 0 12 -13 12 -35 0 -91 41 -106 77
-8 20 -15 38 -15 40 0 8 53 -7 95 -28z m-457 12 c9 -5 -14 -10 -60 -13 -44 -3
-93 -14 -125 -28 -64 -27 -127 -93 -144 -149 -7 -23 -18 -41 -26 -41 -16 0
-16 14 1 63 27 73 91 136 171 165 36 13 165 15 183 3z m267 -26 c36 -14 82
-66 91 -100 8 -31 2 -58 -14 -61 -7 -1 -8 0 -3 2 8 5 1 50 -14 87 -6 13 -10
15 -21 6 -10 -8 -21 -5 -46 12 -18 13 -37 29 -43 36 -5 7 -34 16 -63 20 -36 4
-49 9 -40 15 16 11 112 0 153 -17z m-322 -22 c11 -10 -14 -33 -36 -33 -26 0
-57 -28 -57 -52 0 -15 -3 -17 -19 -9 -15 8 -20 7 -25 -5 -5 -12 -14 -15 -40
-10 -20 4 -37 2 -41 -4 -3 -5 -1 -10 6 -10 7 0 5 -8 -6 -20 -22 -24 -35 -26
-35 -5 0 8 4 15 8 15 5 0 16 18 25 40 17 44 27 49 48 24 12 -15 11 -16 -9 -10
-12 4 -22 3 -22 -2 0 -6 12 -13 26 -16 28 -7 53 14 54 44 0 33 100 76 123 53z
m252 -14 c-4 -5 -12 -9 -20 -9 -7 0 -27 -12 -44 -26 -44 -37 -44 -86 2 -115
43 -27 148 -21 238 15 83 32 91 34 97 17 2 -8 0 -11 -6 -7 -5 3 -9 -2 -8 -11
2 -31 -105 -67 -214 -71 -87 -3 -98 -2 -130 20 -89 60 -71 156 37 193 39 13
58 11 48 -6z m-125 -14 c-14 -8 -29 -14 -35 -14 -5 0 1 6 15 14 14 8 30 14 35
14 6 0 -1 -6 -15 -14z m345 -14 c138 -79 214 -234 202 -407 -5 -63 -27 -134
-43 -134 -3 0 -2 5 1 10 3 6 2 10 -4 10 -5 0 -11 -3 -14 -7 -2 -5 -2 -1 1 7
12 44 29 163 26 188 -17 146 -86 265 -193 334 -59 37 -40 36 24 -1z m261 -26
c23 -17 31 -32 31 -54 0 -17 -4 -31 -9 -31 -4 0 -8 6 -8 14 0 15 -27 29 -40
21 -5 -3 -7 -12 -3 -20 3 -8 0 -15 -6 -15 -6 0 -10 5 -8 12 1 6 -6 14 -15 16
-12 2 -19 -5 -24 -22 -6 -26 -15 -32 -27 -20 -12 12 12 41 43 54 16 7 44 10
60 6 17 -3 30 -3 30 -1 0 9 -80 45 -100 45 -11 0 -20 4 -20 8 0 30 48 23 96
-13z m-347 -37 c1 -10 -8 -22 -20 -28 -20 -11 -20 -11 -3 17 l18 28 -21 -18
c-30 -26 -39 3 -10 33 20 22 21 22 28 4 4 -10 8 -27 8 -36z m-159 22 c0 -5 -5
-10 -11 -10 -5 0 -7 5 -4 10 3 6 8 10 11 10 2 0 4 -4 4 -10z m420 5 c0 -2 -14
-12 -31 -21 -23 -12 -34 -13 -43 -4 -8 8 -7 13 4 20 15 10 70 14 70 5z m-954
-12 c-4 -4 -21 -12 -38 -18 -61 -20 -63 -68 -3 -88 37 -13 111 6 144 36 15 14
22 17 19 7 -2 -8 -21 -24 -41 -36 -21 -11 -35 -23 -33 -25 3 -2 -14 -3 -37 -2
-32 2 -37 1 -22 -6 18 -9 17 -10 -7 -10 -16 -1 -28 4 -28 10 0 5 -4 8 -9 5 -5
-3 -20 4 -35 15 -40 32 -32 80 19 107 22 13 83 16 71 5z m402 -40 c-2 -13 -15
-19 -46 -21 -41 -3 -43 -2 -32 17 14 28 83 31 78 4z m152 10 c0 -16 -16 -30
-32 -30 -9 0 -14 6 -11 13 3 7 -5 14 -19 17 -13 2 -5 5 20 6 23 0 42 -2 42 -6z
m-586 -40 c-10 -7 -22 -12 -27 -10 -16 5 -10 22 14 34 30 16 41 -4 13 -24z
m1197 -31 l6 -32 -26 28 c-28 29 -32 44 -6 22 11 -9 15 -9 15 -1 0 17 -43 31
-52 17 -5 -6 -8 -1 -8 12 l0 24 32 -19 c22 -13 34 -29 39 -51z m-931 39 c0
-26 -17 -44 -62 -67 -27 -14 -52 -35 -57 -47 -12 -33 -33 -211 -36 -312 -2
-49 -4 -97 -4 -105 -1 -9 -12 -2 -30 20 -29 34 -29 37 -25 125 3 58 1 83 -5
70 -11 -25 -106 -106 -115 -98 -3 4 -6 16 -6 29 0 15 21 39 70 78 54 44 71 64
75 90 14 73 4 73 -72 -3 -115 -113 -231 -301 -274 -441 -14 -47 -28 -74 -45
-85 -30 -19 -30 -13 -4 85 30 108 109 262 184 357 80 100 203 207 310 267 84
48 96 52 96 37z m857 -26 c26 -18 47 -77 38 -105 -10 -31 -29 -18 -36 23 -8
52 -34 77 -80 77 -21 0 -41 -4 -44 -10 -8 -12 -25 -13 -25 -2 0 29 111 42 147
17z m-677 -32 c0 -10 -5 -25 -10 -33 -7 -11 -10 -7 -10 18 0 17 5 32 10 32 6
0 10 -8 10 -17z m458 5 c22 -22 15 -76 -13 -94 -32 -21 -98 -29 -121 -15 -18
11 -17 12 3 6 25 -7 35 5 42 54 5 28 11 35 34 38 18 3 26 0 22 -7 -3 -5 -13
-10 -21 -10 -9 0 -14 -6 -11 -12 2 -7 12 -13 23 -13 15 0 19 7 18 33 -2 34 5
39 24 20z m-1002 -26 c1 -18 1 -19 -3 -2 -4 20 -43 29 -43 10 0 -5 8 -10 18
-10 14 0 15 -2 2 -10 -17 -10 -36 13 -25 31 12 19 50 6 51 -19z m450 2 c-3 -9
-6 -23 -6 -32 0 -15 -2 -15 -10 -2 -15 23 -12 50 6 50 11 0 14 -5 10 -16z
m719 -14 c-27 -12 -43 -12 -25 0 8 5 22 9 30 9 10 0 8 -3 -5 -9z m170 -21 c-6
-29 -15 -37 -15 -12 0 17 8 33 16 33 2 0 1 -10 -1 -21z m60 11 c7 -12 -2 -12
-30 0 -19 8 -19 9 2 9 12 1 25 -3 28 -9z m-1315 -54 l-23 -21 6 23 c5 22 3 23
-21 18 -15 -4 -37 -18 -49 -32 -27 -29 -32 -69 -8 -60 21 8 19 3 -12 -33 -30
-34 -43 -39 -43 -16 0 8 -7 15 -16 15 -16 0 -16 -12 0 -51 5 -10 1 -19 -8 -22
-38 -15 -66 138 -35 194 17 32 39 24 33 -11 -5 -25 -3 -30 12 -30 18 -1 18 -1
2 -14 -22 -16 -24 -46 -3 -46 8 0 15 5 15 11 0 24 34 81 57 96 65 43 141 25
93 -21z m535 20 c28 -11 26 -12 -28 -11 -32 1 -63 7 -69 13 -17 17 57 15 97
-2z m-295 -11 c-7 -8 -20 -15 -29 -15 -11 1 -8 5 9 15 32 18 35 18 20 0z m855
5 c3 -5 1 -10 -4 -10 -6 0 -11 5 -11 10 0 6 2 10 4 10 3 0 8 -4 11 -10z m-500
-28 c-3 -3 -11 0 -18 7 -9 10 -8 11 6 5 10 -3 15 -9 12 -12z m570 -123 c17 -9
44 -20 61 -24 27 -5 37 -1 68 28 26 25 36 30 36 18 0 -9 -7 -27 -16 -40 -15
-21 -22 -23 -73 -18 -54 6 -131 31 -131 43 0 3 6 2 13 -2 6 -3 -5 8 -27 26
-32 28 -66 82 -66 105 0 3 24 -23 53 -57 29 -34 66 -70 82 -79z m-1205 121 c0
-5 -9 -10 -21 -10 -11 0 -17 5 -14 10 3 6 13 10 21 10 8 0 14 -4 14 -10z m955
-11 c-22 -4 -49 -8 -60 -7 -16 0 -15 2 5 8 14 4 41 8 60 8 l35 0 -40 -9z
m-102 -10 c59 -16 43 -29 -36 -29 -149 0 -268 -38 -405 -128 -179 -118 -256
-266 -269 -514 -5 -92 -8 -107 -24 -111 -33 -9 1 -89 46 -107 19 -9 19 -9 -2
-9 -44 -2 -71 17 -82 56 -16 55 -13 208 4 283 21 87 102 251 162 325 87 107
237 208 348 234 55 13 212 13 258 0z m396 -14 c16 -8 31 -22 35 -30 9 -26 7
-65 -4 -65 -5 0 -10 11 -10 25 0 37 -33 65 -77 65 -28 0 -34 3 -23 10 21 14
47 12 79 -5z m161 -83 c0 -42 -25 -113 -38 -110 -4 1 -25 -7 -47 -17 -29 -12
-54 -16 -93 -12 -56 6 -126 42 -116 59 4 6 2 8 -3 5 -6 -4 -13 0 -17 8 -7 20
-4 19 46 -7 26 -14 67 -24 104 -26 59 -4 64 -3 100 31 38 34 39 38 39 102 0
61 1 64 12 38 7 -15 12 -48 13 -71z m-84 79 c10 9 9 3 -3 -19 -15 -26 -19 -28
-24 -14 -3 9 -4 24 -1 31 4 11 7 12 10 3 3 -10 7 -10 18 -1z m-884 -33 c-5 -5
-17 -6 -26 -2 -13 5 -14 9 -5 14 16 11 43 0 31 -12z m538 -13 c17 -9 30 -18
30 -20 0 -6 -52 16 -64 27 -16 13 3 9 34 -7z m264 3 c-7 -11 -35 -10 -53 1
-10 6 -3 9 22 8 20 0 34 -5 31 -9z m-989 -15 c-14 -32 -17 -80 -6 -101 8 -15
7 -23 -4 -32 -13 -10 -17 -7 -30 23 -26 62 -13 127 26 127 16 0 19 -4 14 -17z
m-475 -23 c-35 -48 -36 -91 -6 -127 42 -50 13 -88 -32 -40 -26 28 -36 67 -28
111 7 38 47 86 71 86 14 0 13 -4 -5 -30z m1143 19 c40 -21 77 -62 77 -86 0
-28 -34 -98 -52 -109 -10 -6 -11 -5 -1 8 7 8 10 18 6 21 -3 4 -1 7 5 7 7 0 10
12 7 33 -4 28 -4 29 4 7 l9 -25 1 29 c1 28 -45 83 -94 113 -18 11 -19 12 -2
12 10 1 28 -4 40 -10z m-568 -9 c4 -6 -11 -27 -32 -46 -36 -33 -38 -34 -47
-15 -12 28 17 71 49 71 13 0 27 -5 30 -10z m451 -30 c79 -119 8 -293 -142
-350 -96 -36 -194 -16 -194 39 l0 29 48 -15 c90 -28 208 21 246 102 24 51 18
140 -12 183 -21 29 -21 31 -5 41 27 16 31 14 59 -29z m67 6 c31 -31 48 -73 46
-115 0 -9 -6 0 -14 19 -7 19 -18 34 -24 33 -6 -2 -11 1 -11 7 0 5 -13 25 -30
43 -27 31 -30 47 -9 47 5 0 24 -15 42 -34z m589 -19 c29 -57 31 -139 3 -166
-11 -11 -38 -22 -60 -24 -22 -3 -31 -2 -20 0 35 8 40 21 16 47 -12 13 -18 27
-13 30 5 3 18 -6 27 -21 17 -25 18 -26 31 -8 19 25 18 69 -3 108 -18 35 -26
90 -12 81 5 -3 19 -24 31 -47z m-746 6 c-4 -11 4 -28 25 -50 46 -46 29 -52
-20 -7 -39 35 -41 38 -25 55 21 23 28 24 20 2z m-159 -16 l43 -22 -77 -84
c-84 -92 -85 -85 4 -123 29 -13 53 -26 53 -30 0 -5 -53 12 -154 51 -17 6 -10
17 53 89 l72 81 -31 16 c-30 15 -36 26 -23 38 9 10 13 9 60 -16z m118 13 c-3
-5 -12 -10 -18 -10 -7 0 -6 4 3 10 19 12 23 12 15 0z m-867 -55 c-6 -14 -15
-25 -20 -25 -5 0 -1 11 8 25 9 14 18 25 20 25 2 0 -2 -11 -8 -25z m1344 -48
c65 -55 129 -156 127 -200 0 -19 -2 -18 -11 6 -5 15 -14 25 -19 22 -5 -4 -6 1
-3 9 4 9 0 18 -10 22 -8 3 -24 22 -36 41 -18 31 -23 33 -38 22 -15 -12 -16
-12 -5 2 10 13 4 23 -37 64 -28 27 -50 53 -50 57 0 18 23 5 82 -45z m-477 33
c3 -6 -1 -7 -9 -4 -18 7 -21 14 -7 14 6 0 13 -4 16 -10z m-185 -14 c0 -2 -16
-13 -35 -25 -19 -11 -35 -18 -35 -16 0 5 61 45 68 45 1 0 2 -2 2 -4z m265 -86
c2 -3 0 -12 -4 -19 -6 -10 -24 -1 -70 34 -60 45 -68 55 -55 68 6 6 119 -67
129 -83z m11 39 c3 -5 -11 0 -30 12 -20 12 -39 25 -42 30 -3 5 11 0 30 -12 20
-12 39 -25 42 -30z m-798 21 c7 -11 11 -20 9 -20 -2 0 -12 9 -22 20 -10 11
-14 20 -9 20 5 0 15 -9 22 -20z m-256 -23 c10 -19 9 -20 -4 -9 -13 10 -17 10
-22 -3 -3 -9 -2 -13 4 -10 6 3 10 2 10 -2 0 -5 -9 -14 -20 -21 -23 -14 -24
-12 -9 39 13 40 21 42 41 6z m1381 10 c8 -20 -8 -41 -24 -32 -19 11 -1 -6 35
-33 16 -12 22 -22 15 -22 -24 1 -68 46 -64 66 2 11 4 22 4 27 2 12 29 8 34 -6z
m434 7 c-3 -3 -12 -4 -19 -1 -8 3 -5 6 6 6 11 1 17 -2 13 -5z m-1514 -21 c-4
-11 -3 -14 5 -9 7 4 12 3 12 -2 0 -9 -30 -26 -35 -20 -4 5 14 48 19 48 3 0 2
-7 -1 -17z m357 -18 c0 -8 -7 -15 -15 -15 -9 0 -30 -7 -48 -16 -37 -19 -32
-11 15 22 39 27 48 29 48 9z m1021 -2 c13 -16 12 -17 -3 -4 -17 13 -22 21 -14
21 2 0 10 -8 17 -17z m-418 -43 c99 -43 173 -93 145 -98 -10 -2 -38 11 -63 28
-26 18 -84 50 -131 71 -46 22 -84 42 -84 45 0 8 35 -4 133 -46z m-1021 23 c11
-9 18 -30 18 -50 0 -31 -2 -34 -22 -28 -18 5 -20 4 -8 -4 13 -9 12 -13 -7 -32
l-21 -22 -31 24 c-24 19 -29 29 -25 49 8 34 11 36 32 17 10 -10 26 -17 36 -17
25 0 16 33 -12 45 -26 12 -28 22 -4 28 9 3 19 5 21 6 3 0 13 -6 23 -16z m698
-20 c28 -21 50 -40 50 -44 0 -14 -33 -19 -46 -8 -13 11 -18 5 -15 -14 1 -5 -3
-6 -9 -2 -5 3 -7 17 -4 31 4 17 2 24 -9 24 -8 0 -17 -7 -21 -15 -3 -8 -10 -15
-16 -15 -6 0 -8 5 -4 12 4 7 3 8 -4 4 -7 -4 -17 -4 -22 -1 -10 6 28 63 43 64
4 1 30 -16 57 -36z m-526 -16 c9 -23 10 -38 3 -54 -14 -31 -25 -29 -29 5 -4
36 -36 41 -67 8 -27 -28 -26 -81 1 -81 24 0 29 -9 34 -57 3 -30 1 -39 -6 -28
-5 8 -10 23 -10 33 0 9 -4 17 -10 17 -13 0 -13 -6 5 -63 9 -30 11 -56 6 -70
-7 -19 -11 -13 -26 41 -10 34 -21 64 -24 66 -3 2 -14 -2 -24 -9 -16 -11 -16
-16 -2 -55 17 -47 20 -84 6 -76 -4 3 -14 26 -21 51 -15 55 -20 59 -48 39 -21
-14 -21 -16 -6 -55 9 -22 14 -42 11 -45 -2 -3 -27 -2 -55 2 -47 6 -52 9 -58
37 -3 17 -3 32 2 34 5 2 48 28 97 59 l87 56 -6 48 c-8 59 10 90 68 119 47 23
54 21 72 -22z m1406 26 c-1 -22 -38 -103 -39 -85 -1 7 -6 10 -12 6 -15 -9 -1
78 15 88 19 13 36 9 36 -9z m-202 -22 c4 -23 -13 -51 -31 -51 -5 0 -3 8 6 18
10 10 17 26 17 35 0 14 -5 15 -27 7 -26 -10 -27 -9 -8 5 24 19 39 15 43 -14z
m-943 -24 c8 -18 27 -45 41 -61 l27 -28 -24 7 c-13 4 -29 12 -36 17 -7 5 -17
7 -22 4 -12 -8 -28 20 -35 57 -4 23 4 34 26 36 4 1 14 -14 23 -32z m1136 -102
c4 3 6 12 3 20 -4 8 1 18 10 21 26 10 28 -1 5 -29 -11 -15 -17 -32 -13 -39 4
-7 -9 2 -28 20 l-35 33 -7 -27 -7 -28 -37 43 -37 43 -19 -32 c-14 -25 -21 -29
-27 -19 -5 8 -9 10 -9 4 0 -5 -5 -3 -10 5 -5 8 -9 22 -9 30 0 10 3 9 8 -4 7
-17 9 -16 30 12 12 18 20 32 17 32 -3 0 2 9 12 19 17 18 19 17 81 -45 34 -35
67 -62 72 -59z m-331 95 c6 -11 8 -20 6 -20 -3 0 -10 9 -16 20 -6 11 -8 20 -6
20 3 0 10 -9 16 -20z m365 10 c3 -5 1 -10 -4 -10 -6 0 -11 5 -11 10 0 6 2 10
4 10 3 0 8 -4 11 -10z m-1884 -13 c-15 -19 -1 -30 18 -14 8 6 5 -3 -8 -20 -12
-18 -24 -33 -26 -33 -1 0 -2 13 0 28 2 29 12 52 22 52 3 0 0 -6 -6 -13z m1187
-29 c12 -32 13 -32 27 -14 14 19 15 19 35 1 22 -20 24 -33 10 -55 -7 -12 -12
-12 -29 4 -12 11 -21 15 -21 11 0 -4 -9 2 -20 15 -11 13 -20 19 -21 14 0 -5
-4 2 -10 14 -9 23 -5 42 9 42 4 0 13 -15 20 -32z m292 10 c20 -22 26 -38 13
-38 -5 1 -24 14 -43 30 -31 27 -32 30 -13 30 12 0 31 -10 43 -22z m73 -25 c-3
-7 -6 -13 -8 -13 -2 0 -5 6 -8 13 -3 8 1 14 8 14 7 0 11 -6 8 -14z m-1363 -2
c0 -6 -4 -12 -8 -15 -5 -3 -9 1 -9 9 0 8 4 15 9 15 4 0 8 -4 8 -9z m473 -15
c18 -14 18 -15 1 -42 -10 -14 -20 -22 -22 -15 -2 6 -9 8 -15 4 -7 -4 -6 0 1
10 8 9 11 25 7 37 -7 23 2 25 28 6z m-92 -77 c3 -41 10 -83 14 -93 7 -17 5
-18 -21 -12 -35 9 -64 34 -64 55 0 8 12 28 27 43 25 26 21 42 -5 16 -7 -7 -12
-9 -12 -5 0 3 12 18 28 33 17 16 21 24 10 21 -12 -4 -15 -2 -11 9 13 34 28 3
34 -67z m1043 49 c81 -22 71 -33 -32 -35 -120 -2 -227 -29 -341 -85 -48 -23
-96 -43 -108 -43 -13 -1 -29 -7 -35 -14 -11 -11 -9 -11 10 -1 49 25 30 1 -34
-45 -37 -27 -110 -91 -162 -144 -53 -53 -88 -82 -78 -66 15 25 12 24 -19 -10
-32 -35 -127 -178 -138 -209 -3 -7 -11 -5 -22 6 -17 16 -17 20 14 83 130 264
473 532 736 575 59 10 151 5 209 -12z m-1366 -9 c16 9 21 7 25 -9 6 -23 -9
-36 -26 -22 -7 5 -24 12 -38 15 -14 4 -26 13 -26 21 0 12 4 12 23 -1 17 -11
28 -12 42 -4z m905 14 c-7 -2 -19 -2 -25 0 -7 3 -2 5 12 5 14 0 19 -2 13 -5z
m-1153 -18 c0 -8 -6 -15 -14 -15 -17 0 -28 14 -19 24 12 12 33 6 33 -9z m790
-15 c0 -17 -5 -30 -12 -30 -7 0 -25 -12 -41 -27 -18 -18 -26 -22 -22 -11 5 12
1 20 -9 24 -20 8 -6 28 39 56 40 24 45 23 45 -12z m-99 -3 c-1 -12 -15 -9 -19
4 -3 6 1 10 8 8 6 -3 11 -8 11 -12z m388 -23 c12 -20 20 -38 18 -41 -4 -4 -47
63 -47 73 0 11 10 1 29 -32z m744 18 c15 -17 15 -21 -10 -58 -22 -30 -28 -35
-31 -21 -2 10 1 24 8 32 6 7 8 25 4 39 -7 30 6 34 29 8z m-668 -2 c13 -6 15
-9 5 -9 -8 0 -22 4 -30 9 -18 12 -2 12 25 0z m596 -14 c-9 -11 -6 -24 14 -61
25 -49 33 -109 15 -120 -6 -4 -10 6 -10 23 0 16 -13 55 -29 87 l-29 58 21 18
c25 20 36 17 18 -5z m-1721 -3 c-1 -10 -7 -45 -14 -78 l-12 -60 -13 55 c-7 30
-15 63 -17 72 -5 15 0 18 49 27 4 0 7 -7 7 -16z m830 0 c13 -9 31 -18 40 -18
33 -3 80 -17 80 -24 0 -4 -5 -12 -11 -18 -13 -13 -59 -4 -59 13 0 7 -4 15 -8
18 -5 3 -8 -18 -8 -45 1 -45 -3 -54 -32 -80 -57 -51 -88 -31 -32 21 37 35 39
72 5 104 -44 41 -24 63 25 29z m-680 -7 c0 -13 -99 -81 -113 -78 -5 2 -5 -3
-1 -10 9 -14 6 -57 -5 -73 -4 -5 -6 -36 -6 -67 0 -49 4 -62 27 -85 24 -23 31
-26 55 -17 15 5 33 21 40 34 16 32 39 33 36 2 -2 -13 1 -21 7 -17 6 3 7 -1 4
-10 -4 -10 -10 -12 -18 -6 -7 6 -20 4 -36 -4 -16 -9 -19 -14 -9 -15 8 0 20 5
27 12 8 8 12 8 12 1 0 -28 -63 -30 -106 -4 -50 30 -65 76 -62 183 l3 91 60 38
c65 41 85 47 85 25z m430 -33 c-11 -17 -11 -17 -6 0 3 10 6 24 7 30 0 9 2 9 5
0 3 -7 0 -20 -6 -30z m1050 5 c31 -51 26 -94 -14 -134 -24 -24 -43 -34 -66
-34 -56 0 -119 51 -88 72 18 11 28 10 28 -2 0 -6 15 -19 33 -30 36 -22 33 -25
-10 -10 -26 9 -27 9 -9 -5 22 -17 56 -20 56 -5 0 5 7 7 14 4 8 -3 25 3 37 14
30 28 30 92 1 132 -13 16 -18 30 -12 30 6 0 19 -15 30 -32z m48 -9 c-2 -6 -8
-10 -13 -10 -5 0 -11 4 -13 10 -2 6 4 11 13 11 9 0 15 -5 13 -11z m-898 -9
c11 18 30 3 29 -23 0 -12 -3 -16 -6 -9 -4 10 -8 8 -18 -5 -13 -17 -15 -17 -39
6 -29 27 -25 47 6 30 15 -8 22 -8 28 1z m1069 -7 c-17 -22 -31 -33 -43 -33 -5
0 1 11 14 25 27 28 50 34 29 8z m-1189 -71 c0 -69 19 -149 45 -188 24 -36 -6
-36 -33 0 -45 61 -64 169 -41 234 17 48 29 28 29 -46z m860 46 c37 -21 51 -38
32 -38 -9 0 -51 28 -70 47 -20 19 -6 16 38 -9z m180 -3 c0 -7 -6 -15 -14 -18
-9 -4 -12 2 -11 16 3 29 3 29 15 22 6 -3 10 -12 10 -20z m180 -5 c0 -5 -4 -10
-9 -10 -6 0 -13 5 -16 10 -3 6 1 10 9 10 9 0 16 -4 16 -10z m-980 -15 c-7 -8
-16 -15 -21 -15 -5 0 -6 7 -3 15 4 8 13 15 21 15 13 0 13 -3 3 -15z m505 -41
c-28 -25 -48 -34 -74 -34 l-36 1 30 22 c16 12 41 32 55 44 20 17 29 19 45 11
18 -10 17 -13 -20 -44z m-1315 26 c13 -24 2 -50 -11 -29 -9 15 -12 49 -4 49 2
0 9 -9 15 -20z m870 10 c0 -5 -4 -10 -10 -10 -5 0 -10 5 -10 10 0 6 5 10 10
10 6 0 10 -4 10 -10z m298 -51 c-21 -14 -28 -10 -28 15 0 30 33 41 38 12 2
-10 -2 -23 -10 -27z m-762 25 c-3 -9 -6 -18 -6 -20 0 -2 -4 -4 -9 -4 -5 0 -7
9 -4 20 3 11 10 20 15 20 6 0 7 -7 4 -16z m30 -31 c-3 -21 -3 -29 0 -18 7 25
24 44 24 27 0 -21 -40 -93 -49 -88 -8 5 17 116 26 116 2 0 2 -17 -1 -37z
m-561 -21 c-11 -11 -27 17 -20 35 6 16 8 16 16 -6 5 -13 7 -26 4 -29z m759 23
c-9 -14 -19 -23 -22 -20 -5 4 26 45 35 45 2 0 -4 -11 -13 -25z m942 -10 c-21
-19 -41 -35 -45 -35 -3 0 11 16 33 35 21 19 41 35 45 35 3 0 -11 -16 -33 -35z
m-1359 -6 c-21 -11 -35 -24 -32 -29 3 -6 -1 -7 -9 -4 -9 3 -16 7 -16 9 0 8 67
45 80 44 8 0 -2 -9 -23 -20z m273 -10 c-12 -21 -1 -25 19 -6 11 9 10 7 0 -10
-17 -28 -21 -28 -37 -3 -10 17 -10 21 3 26 8 3 12 11 8 17 -3 6 -1 7 5 3 9 -5
9 -13 2 -27z m588 18 c29 -12 30 -15 19 -37 -7 -14 -21 -26 -32 -27 -18 -3
-17 -1 3 9 29 14 28 26 -3 40 -14 6 -25 15 -25 20 0 11 2 10 38 -5z m-979 -19
c7 -19 5 -24 -11 -26 -11 -2 -25 4 -32 14 -17 23 -36 9 -36 -27 0 -16 -4 -29
-9 -29 -5 0 -7 9 -4 20 3 11 -1 27 -8 36 -17 21 3 34 54 34 30 0 39 -5 46 -22z
m1062 -2 c17 10 9 -23 -12 -49 -28 -36 -88 -54 -128 -38 -42 18 -68 48 -53 63
9 9 17 7 32 -9 40 -44 98 -36 128 17 9 16 19 25 20 20 2 -6 8 -8 13 -4z m598
-20 c-3 -3 -11 5 -18 17 -13 21 -12 21 5 5 10 -10 16 -20 13 -22z m-732 2 c-3
-8 -6 -5 -6 6 -1 11 2 17 5 13 3 -3 4 -12 1 -19z m573 7 c-7 -8 -17 -15 -23
-15 -6 0 -2 7 9 15 25 19 30 19 14 0z m-382 -39 c-29 -27 -63 -47 -90 -54 -53
-14 -61 -8 -16 11 19 8 44 26 55 40 16 21 61 42 93 46 3 0 -16 -19 -42 -43z
m292 14 c13 -8 13 -10 -2 -10 -20 0 -38 -29 -38 -60 0 -34 -44 -23 -48 12 -6
48 49 83 88 58z m54 -6 c5 -14 4 -15 -9 -4 -17 14 -19 20 -6 20 5 0 12 -7 15
-16z m121 -4 c-10 -11 -22 -20 -28 -20 -5 0 1 9 14 20 31 25 37 25 14 0z
m-1790 -55 c26 -70 75 -115 128 -116 l42 -1 -40 -13 c-33 -11 -36 -14 -15 -15
14 -1 19 -4 13 -7 -23 -9 -82 18 -107 48 -24 29 -36 62 -50 139 -8 45 6 28 29
-35z m565 58 c0 -5 -14 -23 -31 -41 -28 -32 -32 -33 -60 -22 -36 15 -31 22 18
26 25 2 43 10 52 23 14 22 21 26 21 14z m900 -14 c-6 -11 -9 -25 -6 -32 2 -7
5 -5 5 4 1 9 8 23 18 30 15 13 15 12 5 -8 -17 -32 -15 -57 9 -87 27 -34 71
-35 105 -1 14 14 29 25 34 25 6 0 10 5 10 12 0 6 3 9 6 5 14 -13 -19 -78 -46
-92 -52 -27 -123 -15 -147 25 -18 28 -19 120 -2 131 20 13 21 11 9 -12z m-822
-31 c12 -21 17 -38 12 -38 -11 0 -40 52 -40 71 0 15 1 14 28 -33z m746 20 c8
-30 -25 -59 -35 -31 -7 19 6 53 20 53 5 0 11 -10 15 -22z m318 -1 c-8 -10 -6
-16 9 -25 11 -7 24 -10 29 -7 6 3 7 -1 4 -10 -4 -8 -1 -22 6 -30 7 -8 10 -22
6 -30 -3 -8 -1 -15 4 -15 6 0 10 5 10 12 0 6 3 8 6 5 4 -4 1 -13 -6 -21 -10
-13 -18 -8 -51 36 -21 28 -36 55 -33 60 3 4 -1 8 -8 8 -8 1 -6 6 6 15 24 18
32 19 18 2z m-1342 -10 c0 -7 -18 -21 -40 -31 -46 -20 -80 -59 -80 -92 0 -20
3 -22 22 -15 19 7 26 3 39 -19 23 -37 53 -43 85 -17 l27 20 -12 -21 c-20 -37
-66 -55 -107 -42 -42 14 -64 44 -64 88 0 51 25 89 78 116 56 30 52 29 52 13z
m700 -39 c0 -24 -17 -23 -25 2 -8 26 4 48 16 29 5 -8 9 -22 9 -31z m775 32
c-3 -5 -16 -10 -28 -9 -20 1 -20 2 3 9 14 4 26 8 28 9 2 1 0 -3 -3 -9z m-828
-22 c-3 -8 -6 -5 -6 6 -1 11 2 17 5 13 3 -3 4 -12 1 -19z m310 -13 c-4 -8 -11
-15 -17 -15 -14 0 -13 27 3 33 16 6 21 1 14 -18z m55 -82 c-24 -60 -50 -111
-56 -115 -8 -6 -8 -8 0 -8 7 0 50 20 96 45 l85 45 20 -23 20 -22 -38 -82 c-35
-76 -40 -83 -67 -83 l-29 0 27 58 c16 31 27 58 25 60 -2 2 -54 -23 -116 -55
-141 -72 -133 -68 -126 -52 84 194 110 247 129 262 20 16 20 18 3 11 -119 -45
-167 -56 -250 -60 -72 -3 -92 -1 -92 10 0 10 24 15 86 19 98 8 194 33 266 70
28 14 53 26 56 27 4 0 -14 -48 -39 -107z m-252 41 c0 -8 -7 -14 -15 -14 -8 0
-15 6 -15 13 0 6 -3 23 -6 37 l-6 25 21 -24 c12 -13 21 -29 21 -37z m-516 -37
c-8 -22 -14 -59 -14 -83 0 -48 -14 -57 -31 -20 -11 24 -2 89 21 150 10 27 11
28 24 10 12 -15 11 -24 0 -57z m1226 34 c-29 -42 -36 -39 -8 3 13 19 24 33 26
31 3 -2 -6 -18 -18 -34z m-1460 -25 c0 -14 -4 -28 -10 -31 -5 -3 -10 -1 -10 4
0 6 -9 20 -20 31 l-20 20 30 0 c25 0 30 -4 30 -24z m1347 -12 c9 -23 -11 -38
-26 -20 -13 16 -7 36 10 36 5 0 12 -7 16 -16z m-1053 -44 c-5 -5 -9 4 -10 23
-1 30 -1 30 9 9 6 -14 7 -26 1 -32z m317 27 c-10 -9 -11 -8 -5 6 3 10 9 15 12
12 3 -3 0 -11 -7 -18z m-67 -37 c29 -22 58 -40 64 -40 5 0 12 -4 14 -8 4 -10
94 -48 137 -57 24 -5 30 -10 20 -16 -11 -6 -11 -9 1 -13 43 -13 45 -14 25 -15
-97 -4 -346 129 -328 174 7 20 7 20 67 -25z m836 5 c0 -16 -27 -28 -36 -14 -7
12 15 41 27 33 5 -3 9 -11 9 -19z m-1557 -14 c-12 -10 -19 -22 -15 -26 4 -5 1
-5 -5 -1 -8 5 -13 1 -13 -9 0 -13 6 -16 25 -11 32 8 32 3 0 -18 -14 -9 -24
-13 -23 -9 2 4 -1 10 -7 11 -37 13 -35 26 7 53 50 32 62 36 31 10z m1417 -11
c6 -11 8 -20 6 -20 -3 0 -10 9 -16 20 -6 11 -8 20 -6 20 3 0 10 -9 16 -20z
m50 16 c0 -2 -8 -10 -17 -17 -16 -13 -17 -12 -4 4 13 16 21 21 21 13z m-529
-20 c-19 -11 -21 -14 -7 -19 9 -4 16 -3 16 1 0 4 27 5 59 4 49 -3 59 -7 54
-19 -5 -13 -18 -14 -70 -10 -75 6 -98 21 -69 43 11 8 25 14 30 14 6 -1 0 -7
-13 -14z m-374 -236 c35 -25 109 -71 165 -103 100 -56 97 -64 -7 -26 -75 28
-201 105 -248 152 -23 23 -46 42 -52 42 -5 0 -10 7 -10 15 0 8 -7 15 -15 15
-8 0 -15 7 -15 15 -1 8 -7 14 -14 12 -7 -1 -10 2 -6 8 3 5 -1 10 -9 10 -8 0
-27 16 -41 35 -22 28 -25 36 -13 48 11 12 27 0 108 -82 52 -53 123 -116 157
-141z m-364 170 c-11 -3 -18 -14 -17 -27 1 -27 -4 -28 -30 -8 -15 12 -22 12
-34 3 -11 -10 -17 -8 -28 7 -13 18 -13 20 8 27 13 3 40 9 61 13 24 4 35 10 32
18 -4 7 1 3 10 -8 15 -19 15 -20 -2 -25z m480 13 c7 -16 18 -27 24 -26 10 2
11 -53 0 -63 -3 -3 -16 10 -29 30 -13 20 -26 36 -30 36 -19 0 -16 -23 8 -60
l27 -41 23 22 c12 11 28 34 35 51 8 19 15 26 22 19 22 -22 -99 -171 -140 -171
-19 0 -16 13 8 28 20 13 20 13 -5 43 -15 17 -26 36 -26 42 0 6 6 2 14 -9 11
-14 17 -16 26 -7 14 13 4 37 -11 28 -5 -3 -6 1 -3 9 6 17 -7 22 -20 9 -4 -5
-11 -8 -14 -9 -32 -4 -40 -17 -30 -45 7 -20 15 -28 25 -25 8 4 11 1 7 -5 -4
-6 0 -15 7 -20 9 -6 10 -9 2 -9 -14 0 -53 48 -53 66 0 8 -10 14 -22 14 -21 1
-21 2 -5 11 9 5 17 16 17 24 0 17 61 65 83 65 9 0 19 5 22 10 11 17 23 11 38
-17z m787 -21 c0 -11 -9 -27 -20 -37 -22 -20 -26 -9 -8 30 13 29 28 33 28 7z
m-90 -29 c0 -19 -49 -105 -50 -88 0 6 9 27 20 48 11 21 18 42 15 47 -4 6 -1
10 4 10 6 0 11 -8 11 -17z m-1427 -10 c-7 -2 -19 -2 -25 0 -7 3 -2 5 12 5 14
0 19 -2 13 -5z m77 -28 c0 -37 -28 -75 -55 -75 -10 0 -6 8 10 25 14 13 25 35
25 48 0 21 7 37 17 37 2 0 3 -16 3 -35z m1448 15 c-7 -11 -19 -22 -28 -26 -37
-15 -70 -22 -70 -14 0 5 12 11 28 15 15 3 38 14 52 25 31 25 33 25 18 0z
m-1218 -15 c0 -22 28 -26 35 -4 4 11 9 18 12 15 7 -6 -38 -156 -47 -156 -16 0
-79 64 -88 90 -13 34 0 40 21 9 17 -23 19 -20 36 34 12 35 31 43 31 12z m1240
1 c0 -2 -8 -10 -17 -17 -16 -13 -17 -12 -4 4 13 16 21 21 21 13z m-634 -21
c-10 -8 -16 -21 -13 -29 4 -10 1 -13 -8 -9 -8 3 -12 10 -8 17 13 24 26 36 37
36 6 0 3 -7 -8 -15z m-770 -17 c-18 -10 -39 -2 -31 12 3 4 15 6 26 3 19 -5 19
-7 5 -15z m711 -17 c26 -16 81 -48 121 -71 41 -23 71 -44 68 -47 -3 -3 -17 4
-33 15 -31 21 -108 62 -119 62 -3 0 0 -7 7 -17 12 -14 12 -16 -1 -11 -8 3 -14
12 -14 20 1 8 -12 23 -29 33 -30 18 -30 18 -24 -4 3 -11 1 -21 -4 -21 -5 0 -9
12 -10 28 0 27 -1 27 -11 5 -12 -26 -30 -31 -23 -8 3 8 7 22 10 30 6 20 6 20
62 -14z m638 19 c-3 -5 -14 -10 -23 -9 -14 0 -13 2 3 9 27 11 27 11 20 0z
m-160 -15 c-16 -7 -54 -20 -83 -28 -51 -16 -52 -15 -42 3 6 11 26 22 48 25 20
4 42 8 47 10 6 2 21 3 35 3 24 0 24 0 -5 -13z m-315 -5 c-14 -4 -32 -8 -40 -9
-13 -1 -13 0 0 9 8 5 26 9 40 9 l25 -1 -25 -8z m154 -68 c-12 -19 -18 -21 -24
-11 -5 7 -7 16 -5 20 3 3 9 19 16 35 l11 29 9 -24 c7 -17 5 -31 -7 -49z
m-1007 33 c25 4 33 2 33 -8 0 -29 -55 -35 -101 -12 -36 19 -30 39 9 24 15 -6
41 -8 59 -4z m283 9 c0 -3 -5 -14 -11 -26 -15 -28 7 -82 30 -73 12 5 13 3 5
-5 -18 -18 -64 16 -64 47 0 29 17 63 30 63 6 0 10 -3 10 -6z m685 -56 c10 -41
-16 -36 -37 7 -12 25 -14 35 -5 38 17 6 34 -13 42 -45z m-390 32 c-3 -5 -12
-10 -18 -10 -7 0 -6 4 3 10 19 12 23 12 15 0z m29 -3 c-2 -7 -14 -19 -27 -26
-21 -13 -21 -12 2 13 27 29 33 32 25 13z m645 -26 c-7 -19 -23 -37 -43 -47
-20 -10 -26 -10 -16 -2 8 7 26 30 40 50 29 43 34 43 19 -1z m-1054 19 c-3 -5
1 -10 9 -10 9 0 16 -4 16 -10 0 -5 -6 -10 -14 -10 -8 0 -18 5 -21 10 -6 10 1
30 11 30 3 0 2 -4 -1 -10z m955 0 c0 -16 -27 -23 -58 -15 -25 7 -25 8 -7 15
29 12 65 12 65 0z m-1116 -26 c4 -9 4 -19 2 -21 -8 -8 -26 8 -26 23 0 19 16
18 24 -2z m87 -11 c12 -16 12 -17 -2 -6 -9 7 -20 9 -24 5 -5 -4 -5 -1 -1 6 9
16 11 15 27 -5z m802 2 c8 -18 -11 -31 -25 -17 -11 11 -3 32 12 32 4 0 10 -7
13 -15z m-482 -58 c-17 -17 -24 -1 -10 25 12 21 14 21 17 4 2 -10 -1 -23 -7
-29z m-376 7 c16 -25 16 -25 -3 -15 -11 6 -22 17 -26 26 -9 24 10 17 29 -11z
m901 -27 c-6 -26 -31 -41 -48 -31 -7 4 -4 10 6 16 9 5 16 16 16 24 0 8 5 12
10 9 6 -3 10 -1 10 6 0 7 3 10 6 6 4 -3 4 -17 0 -30z m-805 -20 c12 -22 12
-22 -10 -3 -11 11 -21 23 -21 28 0 14 19 -1 31 -25z m333 12 c6 -6 4 -9 -5
-10 -7 0 -24 -2 -36 -5 -27 -5 -76 13 -69 25 7 10 97 2 110 -10z m314 -22 c2
-18 -3 -29 -17 -37 -29 -15 -61 3 -61 35 0 50 72 52 78 2z m229 27 c6 -18 -26
-44 -44 -37 -13 5 -12 8 7 15 19 7 20 10 9 24 -12 14 -11 16 5 13 11 -2 21 -9
23 -15z m-752 -44 l40 -7 -35 -1 c-19 -1 -46 6 -60 14 -16 10 -18 13 -5 8 11
-4 38 -10 60 -14z m585 0 c0 -5 -4 -10 -10 -10 -5 0 -10 5 -10 10 0 6 5 10 10
10 6 0 10 -4 10 -10z m-283 -81 c34 -13 77 -11 91 3 20 20 14 27 -30 31 -28 2
-18 4 27 4 39 1 63 -1 55 -4 -8 -3 -29 -18 -46 -34 l-30 -29 -50 15 c-49 15
-76 33 -104 70 -8 11 2 5 24 -13 21 -18 49 -38 63 -43z m337 56 c-4 -8 -18
-18 -33 -21 -14 -4 -34 -15 -44 -25 -19 -21 -37 -25 -37 -9 0 6 6 9 13 8 7 -2
12 7 11 20 0 17 4 21 17 17 10 -4 31 1 46 9 35 19 33 19 27 1z m-339 -5 c13
-6 15 -9 5 -9 -8 0 -22 4 -30 9 -18 12 -2 12 25 0z m-144 -38 c-13 -2 -27 0
-32 5 -6 6 3 7 23 4 28 -4 29 -6 9 -9z"/>
<path d="M1065 2010 c-4 -7 0 -19 9 -28 13 -13 20 -14 34 -6 9 6 17 17 17 25
0 17 -50 24 -60 9z"/>
<path d="M1240 1940 c0 -5 7 -7 15 -4 8 4 15 8 15 10 0 2 -7 4 -15 4 -8 0 -15
-4 -15 -10z"/>
<path d="M1254 1919 c-3 -6 -1 -16 6 -22 10 -9 11 -9 6 0 -3 6 -2 14 4 18 5 3
10 -3 10 -14 0 -12 7 -21 15 -21 8 0 15 -4 15 -10 0 -5 5 -10 10 -10 6 0 -2
16 -17 35 -30 37 -38 41 -49 24z"/>
<path d="M1310 1910 c0 -5 5 -10 10 -10 6 0 10 5 10 10 0 6 -4 10 -10 10 -5 0
-10 -4 -10 -10z"/>
<path d="M1335 1880 c3 -5 8 -10 11 -10 2 0 4 5 4 10 0 6 -5 10 -11 10 -5 0
-7 -4 -4 -10z"/>
<path d="M1295 1600 c-3 -5 -2 -10 4 -10 5 0 13 5 16 10 3 6 2 10 -4 10 -5 0
-13 -4 -16 -10z"/>
<path d="M717 1464 c-8 -8 1 -24 14 -24 5 0 9 7 9 15 0 15 -12 20 -23 9z"/>
<path d="M253 942 c-26 -20 -19 -36 20 -46 26 -6 28 -5 22 16 -14 45 -19 48
-42 30z"/>
<path d="M1901 1194 c0 -11 3 -14 6 -6 3 7 2 16 -1 19 -3 4 -6 -2 -5 -13z"/>
<path d="M766 1157 c3 -10 9 -15 12 -12 3 3 0 11 -7 18 -10 9 -11 8 -5 -6z"/>
<path d="M1800 1177 c0 -19 57 -71 64 -59 7 11 -40 72 -55 72 -5 0 -9 -6 -9
-13z"/>
<path d="M1305 1130 c-7 -12 2 -30 16 -30 5 0 9 9 9 20 0 21 -15 27 -25 10z"/>
<path d="M613 1015 c-19 -21 -16 -27 7 -13 11 7 20 16 20 20 0 12 -14 9 -27
-7z"/>
<path d="M70 1021 c0 -11 5 -23 10 -26 6 -3 10 3 10 14 0 11 -4 23 -10 26 -5
3 -10 -3 -10 -14z"/>
<path d="M1007 999 c7 -7 15 -10 18 -7 3 3 -2 9 -12 12 -14 6 -15 5 -6 -5z"/>
<path d="M1467 896 c-18 -14 -22 -26 -9 -26 15 0 45 27 36 33 -5 3 -17 0 -27
-7z"/>
<path d="M130 641 c0 -5 7 -12 16 -15 14 -5 15 -4 4 9 -14 17 -20 19 -20 6z"/>
<path d="M1445 651 c-3 -5 -1 -12 5 -16 5 -3 10 1 10 9 0 18 -6 21 -15 7z"/>
<path d="M1395 480 c3 -5 8 -10 11 -10 2 0 4 5 4 10 0 6 -5 10 -11 10 -5 0 -7
-4 -4 -10z"/>
<path d="M1258 533 c6 -2 18 -2 25 0 6 3 1 5 -13 5 -14 0 -19 -2 -12 -5z"/>
<path d="M883 498 c-20 -10 -38 -36 -30 -44 2 -2 19 10 38 26 35 30 32 37 -8
18z"/>
<path d="M932 397 c-10 -11 -9 -17 3 -27 24 -20 45 4 24 26 -14 13 -17 13 -27
1z"/>
<path d="M532 368 c-14 -14 -16 -48 -4 -48 8 0 32 43 32 55 0 9 -16 5 -28 -7z"/>
<path d="M1163 174 c-8 -21 13 -42 28 -27 13 13 5 43 -11 43 -6 0 -13 -7 -17
-16z"/>
</g>
</svg>
